<svg width="1000" height="200" viewBox="0 0 1000 200" fill="none" xmlns="http://www.w3.org/2000/svg">
<rect width="1000" height="200" fill="white"/>
<path d="M852.963 101.694L825.231 137.434V137.434C824.122 136.245 823.181 134.888 822.454 133.433V133.433C819.564 127.654 817.642 121.371 816.823 114.961L816.625 113.408L852.963 101.694Z" fill="#102E48"/>
<path d="M858.937 67.3875L863.958 64.6383L862.284 69.6587L837.302 85.4371L840.355 71.4528C840.787 69.4726 841.534 67.5746 842.567 65.831V65.831C842.8 65.4379 843.106 65.0927 843.468 64.8139L866.827 46.8278L866.468 53.9998L864.331 55.6186C863.154 56.5107 862.273 57.7382 861.806 59.1397V59.1397L865.87 56.1514L864.675 62.1281L860.37 65.1227C859.607 65.6537 859.09 66.4703 858.937 67.3875V67.3875Z" fill="#102E48"/>
<path d="M909.86 56.5106L904.249 60.4794C901.494 62.4278 899.239 65.0004 897.668 67.9862L907.709 62.0087L901.493 76.1141L893.521 80.6698C891.06 82.076 888.96 84.0362 887.388 86.3944L898.982 81.2538L892.768 92.1317L882.841 96.3993C880.975 97.2014 879.394 98.5464 878.304 100.26L889.659 96.913L883.563 106.596L875.952 108.692C873.287 109.427 870.927 110.996 869.219 113.17L880.455 111.018L874.837 119.386L865.633 128.709L860.373 130.741L855.353 130.502L875.195 144.966L891.691 156.68L884.759 157.637L875.674 150.225L892.289 167.079L883.563 165.765L869.697 150.942L885.595 173.295L846.627 152.616L837.955 147.975C834.658 146.211 831.52 144.164 828.577 141.857L835.391 133.969L862.525 150.464L840.292 127.992L871.609 88.0673L815.189 108.149L811.306 98.6659C808.04 90.6916 800.586 85.2152 792 84.4813C794.982 82.5193 798.401 81.3212 801.956 80.9921L802.997 80.8954L805.615 79.2499C806.649 78.6001 807.799 78.156 809.001 77.9423C811.36 77.5228 813.769 77.4546 816.148 77.7401L816.298 77.7577C817.784 77.936 819.242 78.3041 820.635 78.8514L825.23 80.6561L835.511 86.3944L834.263 87.1737C833.824 87.4481 833.335 87.6335 832.824 87.7186C832.386 87.7916 831.939 87.7961 831.5 87.7333L830.425 87.58C829.927 87.5088 829.632 88.1201 829.998 88.4657L830.55 88.9872C832.061 90.4144 834.349 90.6334 836.104 89.5184L915.12 39.2977L909.86 56.5106ZM812.541 79.9794C811.789 81.7836 810.324 83.1963 808.494 83.8827C810.322 84.7204 811.713 86.2881 812.328 88.202L812.438 88.5448L812.535 88.2968C813.311 86.322 814.881 84.7644 816.861 84.0028L816.654 83.9227C814.802 83.2102 813.321 81.7705 812.558 79.9384L812.541 79.9794Z" fill="#102E48"/>
<path d="M883.562 165.764L892.288 167.079L911.772 186.802L900.536 181.184L897.461 179.458C894.987 178.069 892.767 176.268 890.897 174.134L883.562 165.764Z" fill="#24ACE0"/>
<path d="M884.757 157.636L891.69 156.68L912.728 171.861V171.861C908.281 171.622 903.88 170.849 899.618 169.558L898.145 169.111L884.757 157.636Z" fill="#24ACE0"/>
<path d="M866.826 46.8281L884.398 32.8427L884.341 33.1134C883.669 36.3255 882.346 39.3657 880.453 42.0467V42.0467L866.468 54.0001L866.826 46.8281Z" fill="#24ACE0"/>
<path d="M865.872 56.1527L880.455 45.5142V45.5142C879.668 48.7412 878.175 51.7533 876.083 54.3334L875.674 54.8378L864.677 62.1293L865.872 56.1527Z" fill="#24ACE0"/>
<path d="M863.959 64.6384L874.956 58.0641V58.0641C874.096 60.5656 872.563 62.7815 870.525 64.468L870.174 64.758L862.285 69.6588L863.959 64.6384Z" fill="#24ACE0"/>
<path d="M889.659 96.9118L914.163 89.0226V89.0226C911.397 93.0526 907.917 96.5422 903.894 99.3185L901.493 100.976L883.562 106.594L889.659 96.9118Z" fill="#24ACE0"/>
<path d="M898.985 81.2538L928.152 68.5833V68.5833C925.537 73.1791 922.245 77.3553 918.388 80.9717L916.557 82.6882L892.77 92.1314L898.985 81.2538Z" fill="#24ACE0"/>
<path d="M907.71 62.01L944.646 40.2549L942.835 44.0666C941.021 47.8857 938.738 51.4639 936.039 54.7185V54.7185L933.807 57.0938C931.565 59.4786 928.948 61.4805 926.06 63.0202L901.494 76.115L907.71 62.01Z" fill="#24ACE0"/>
<path d="M915.12 39.2974L956 13V13C953.865 19.091 950.701 24.771 946.647 29.7935L944.764 32.1254L909.86 56.5102L915.12 39.2974Z" fill="#24ACE0"/>
<path d="M880.455 111.018L897.07 107.551L894.201 109.942L891.332 112.333L885.475 116.516L882.987 118.294C880.745 119.895 878.639 121.679 876.691 123.628L875.707 124.611C874.492 125.826 873.389 127.149 872.414 128.564L872.266 128.778C871.75 129.527 871.315 130.328 870.969 131.169L870.533 132.228C870.06 133.377 869.816 134.608 869.816 135.851V135.893C869.816 136.992 870.014 138.081 870.399 139.109V139.109C870.724 139.976 871.22 140.769 871.857 141.442L875.195 144.965L869.816 141.499L863.242 136.718L857.863 132.534L855.353 130.502L857.41 130.438C858.582 130.401 859.743 130.194 860.856 129.823V129.823C862.597 129.243 864.246 128.416 865.754 127.37L866.147 127.096C867.235 126.341 868.237 125.469 869.136 124.495L874.956 118.19L880.455 111.018Z" fill="#24ACE0"/>
<rect x="415.098" y="43" width="20.9407" height="114.01" fill="#102E48"/>
<path d="M589.604 43H610.544V91.8616H664.059V43H685V157.01H664.059V110.475H610.544V157.01H589.604V43Z" fill="#102E48"/>
<path d="M503.515 43H524.455H559.356V63.9407H524.455V157.01H503.515V63.9407H467.45V43H503.515Z" fill="#102E48"/>
<path d="M277.815 43H294.103L353.435 119.782V43H373.212V157.01H356.925L297.593 82.5546V157.01H277.815V43Z" fill="#102E48"/>
<path d="M37 43H127.629V60.6062L66.0479 138.073H127.629V156.853H37V140.421L97.4196 62.9537H37V43Z" fill="#102E48"/>
<path d="M182.433 138.396H249.908V157.011H159.165V133.743L182.433 110.476V138.396ZM238.274 89.5352V108.148H184.76L203.373 89.5352H238.274ZM249.908 63.9404H182.433V89.5352H159.165V43H249.908V63.9404Z" fill="#102E48"/>
</svg>
